<svg width="14" height="26" viewBox="0 0 14 26" fill="none" xmlns="http://www.w3.org/2000/svg" xmlns:xlink="http://www.w3.org/1999/xlink">
<path d="M5.94,25.92C3.204,25.92 1.08,24.948 0,24.156L0,20.16C0.9,21.024 2.88,22.248 5.436,22.248C8.208,22.248 9.612,20.268 9.612,17.64C9.612,14.832 7.416,12.816 3.744,12.816L3.168,12.816L3.168,9.9L3.528,9.9C7.092,9.9 8.496,7.848 8.496,5.976C8.496,4.32 7.416,3.384 5.76,3.384C4.068,3.384 2.376,4.212 0.9,5.4L0.9,1.548C2.484,0.54 4.284,0 6.264,0C9.972,0 12.24,2.124 12.24,5.436C12.24,7.668 11.124,9.972 8.784,11.16C11.736,12.348 13.464,14.868 13.464,18.108C13.464,23.004 10.188,25.92 5.94,25.92Z" fill="#001E57"/>
</svg>
