<svg width="200" height="200" viewBox="0 0 200 200" fill="none" xmlns="http://www.w3.org/2000/svg" xmlns:xlink="http://www.w3.org/1999/xlink">
<mask id="mask_0_i_220_1516;220_421" style="mask-type:alpha" maskUnits="userSpaceOnUse" x="73.494141" y="62.80835" width="25.941133" height="13.641726">
</mask>
<mask id="mask_0_i_220_1516;220_426" style="mask-type:alpha" maskUnits="userSpaceOnUse" x="73.494141" y="31.381104" width="12.973116" height="29.355352">
</mask>
<mask id="mask_0_i_220_1516;220_431" style="mask-type:alpha" maskUnits="userSpaceOnUse" x="99.439453" y="31.381104" width="12.973116" height="29.355352">
</mask>
<mask id="mask_0_i_220_1516;220_436" style="mask-type:alpha" maskUnits="userSpaceOnUse" x="73.494141" y="79.619446" width="12.973116" height="18.38043">
</mask>
<mask id="mask_0_i_220_1516;220_441" style="mask-type:alpha" maskUnits="userSpaceOnUse" x="99.439453" y="79.619446" width="12.978211" height="18.38043">
</mask>
<path d="M17.94,158.762C17.94,159.203 17.573,159.562 17.135,159.562L1.612,159.562C1.999,163.419 4.886,166.937 8.945,166.937C11.719,166.937 13.779,165.87 15.33,163.644C15.554,163.337 15.89,163.142 16.319,163.326C16.553,163.429 16.717,163.644 16.757,163.89C16.798,164.147 16.727,164.29 16.655,164.434C15.095,167.173 11.984,168.516 8.935,168.516C3.713,168.516 -0.01,163.819 -0.01,158.793C-0.01,153.767 3.713,149.069 8.935,149.069C14.157,149.059 17.93,153.746 17.94,158.762ZM16.278,158.003C15.941,154.146 13.004,150.628 8.945,150.628C4.886,150.628 1.999,154.146 1.612,158.003L16.278,158.003ZM36.778,149.449C37.227,149.449 37.553,149.838 37.553,150.228C37.553,150.68 37.217,151.008 36.778,151.008L32.617,151.008L32.617,167.429C32.617,167.819 32.28,168.209 31.842,168.209C31.393,168.209 31.067,167.819 31.067,167.429L31.067,151.008L27.069,151.008C26.62,151.008 26.293,150.669 26.293,150.228C26.293,149.838 26.63,149.449 27.069,149.449L31.067,149.449L31.067,143.438C31.067,143.059 31.321,142.71 31.689,142.648C32.209,142.566 32.617,142.925 32.617,143.418L32.617,149.449L36.778,149.449ZM62.163,157.388L62.163,167.337C62.163,167.788 61.776,168.116 61.388,168.116C60.939,168.116 60.613,167.778 60.613,167.337L60.613,157.388C60.613,154.034 58.726,150.68 55.004,150.68C50.23,150.68 48.17,154.875 48.446,159.172C48.446,159.285 48.497,159.788 48.497,159.839L48.497,167.306C48.497,167.686 48.242,168.034 47.874,168.096C47.354,168.178 46.946,167.819 46.946,167.327L46.946,134.648C46.946,134.258 47.283,133.868 47.721,133.868C48.17,133.868 48.497,134.258 48.497,134.648L48.497,153.141C49.833,150.741 52.219,149.12 54.993,149.12C59.552,149.12 62.163,153.141 62.163,157.388ZM89.996,158.762C89.996,159.203 89.629,159.562 89.191,159.562L73.657,159.562C74.045,163.419 76.931,166.937 80.991,166.937C83.765,166.937 85.825,165.87 87.375,163.644C87.6,163.337 87.936,163.142 88.364,163.326C88.599,163.429 88.762,163.644 88.803,163.89C88.844,164.147 88.772,164.29 88.701,164.434C87.141,167.173 84.03,168.516 80.98,168.516C75.758,168.516 72.036,163.819 72.036,158.793C72.036,153.767 75.758,149.069 80.98,149.069C86.212,149.059 89.986,153.746 89.996,158.762ZM88.324,158.003C87.987,154.146 85.05,150.628 80.991,150.628C76.931,150.628 74.045,154.146 73.657,158.003L88.324,158.003ZM109.048,150.177C109.048,150.68 108.773,150.956 108.324,151.018C103.765,151.685 101.715,155.428 101.715,159.788L101.715,167.255C101.715,167.634 101.46,167.983 101.093,168.045C100.573,168.127 100.165,167.768 100.165,167.275L100.165,150.259C100.165,149.879 100.42,149.531 100.787,149.469C101.307,149.387 101.715,149.746 101.715,150.238L101.715,153.705C102.99,151.531 105.55,149.459 108.212,149.459C108.599,149.449 109.048,149.736 109.048,150.177ZM134.545,158.762C134.545,159.203 134.178,159.562 133.74,159.562L118.217,159.562C118.604,163.419 121.491,166.937 125.55,166.937C128.324,166.937 130.384,165.87 131.935,163.644C132.159,163.337 132.495,163.142 132.924,163.326C133.158,163.429 133.322,163.644 133.362,163.89C133.403,164.147 133.332,164.29 133.26,164.434C131.7,167.173 128.589,168.516 125.54,168.516C120.318,168.516 116.595,163.819 116.595,158.793C116.595,153.767 120.318,149.069 125.54,149.069C130.762,149.059 134.535,153.746 134.545,158.762ZM132.883,158.003C132.546,154.146 129.609,150.628 125.55,150.628C121.491,150.628 118.604,154.146 118.217,158.003L132.883,158.003ZM159.604,150.372L159.604,167.429C159.604,167.88 159.217,168.209 158.829,168.209C158.381,168.209 158.054,167.87 158.054,167.429L158.054,164.188C156.779,166.762 154.495,168.598 151.608,168.598C146.998,168.598 144.438,164.578 144.438,160.331L144.438,150.331C144.438,149.941 144.775,149.551 145.214,149.551C145.662,149.551 145.989,149.941 145.989,150.331L145.989,160.331C145.989,163.685 147.876,167.039 151.598,167.039C156.82,167.039 158.044,162.126 158.044,156.7L158.044,150.331C158.044,149.879 158.493,149.418 159.043,149.582C159.38,149.695 159.604,150.023 159.604,150.372ZM198.87,157.326L198.87,167.327C198.87,167.778 198.483,168.106 198.095,168.106C197.647,168.106 197.32,167.768 197.32,167.327L197.32,157.326C197.32,153.972 195.433,150.68 191.711,150.68C187.04,150.68 185.265,155.705 185.265,159.613L185.265,167.327C185.265,167.778 184.877,168.106 184.49,168.106C184.041,168.106 183.715,167.768 183.715,167.327L183.715,157.326C183.715,153.972 181.828,150.68 178.105,150.68C173.383,150.68 171.435,154.423 171.609,159.398C171.609,159.511 171.66,159.736 171.609,159.788L171.609,167.306C171.609,167.686 171.354,168.034 170.976,168.096C170.456,168.178 170.048,167.819 170.048,167.327L170.048,150.259C170.048,149.879 170.303,149.531 170.67,149.469C171.19,149.387 171.598,149.746 171.598,150.238L171.598,153.09C172.934,150.69 175.321,149.12 178.095,149.12C181.257,149.12 183.705,151.131 184.704,154.095C185.979,151.192 188.478,149.12 191.701,149.12C196.26,149.12 198.87,153.08 198.87,157.326Z" fill="#001E57"/>
<g opacity="0.6">
<g mask="url(#mask_0_i_220_1516;220_421)">
<path d="M99.44,62.808L73.494,74.676L99.44,90.092L125.376,74.676L99.44,62.808Z" fill="#001E57"/>
</g>
</g>
<g opacity="0.45">
<g mask="url(#mask_0_i_220_1516;220_426)">
<path d="M73.494,74.676L99.44,90.092L99.44,31.381L73.494,74.676Z" fill="#001E57"/>
</g>
</g>
<g opacity="0.8">
<g mask="url(#mask_0_i_220_1516;220_431)">
<path d="M99.439,31.381L99.439,90.092L125.375,74.676L99.439,31.381Z" fill="#001E57"/>
</g>
</g>
<g opacity="0.45">
<g mask="url(#mask_0_i_220_1516;220_436)">
<path d="M73.494,79.619L99.44,116.38L99.44,95.036L73.494,79.619Z" fill="#001E57"/>
</g>
</g>
<g opacity="0.8">
<g mask="url(#mask_0_i_220_1516;220_441)">
<path d="M99.439,95.036L99.439,116.38L125.396,79.619L99.439,95.036Z" fill="#001E57"/>
</g>
</g>
</svg>
