<svg width="36" height="36" viewBox="0 0 36 36" fill="none" xmlns="http://www.w3.org/2000/svg" xmlns:xlink="http://www.w3.org/1999/xlink">
<path d="M35.067,18.104C35.067,8.62 27.425,0.932 17.999,0.932C8.573,0.932 0.932,8.62 0.932,18.104C0.932,26.674 7.173,33.778 15.332,35.066L15.332,23.067L10.999,23.067L10.999,18.104L15.332,18.104L15.332,14.32C15.332,10.017 17.881,7.64 21.779,7.64C23.646,7.64 25.6,7.975 25.6,7.975L25.6,12.201L23.448,12.201C21.327,12.201 20.666,13.524 20.666,14.882L20.666,18.104L25.4,18.104L24.643,23.067L20.666,23.067L20.666,35.066C28.826,33.778 35.067,26.674 35.067,18.104Z" fill="#001E57"/>
</svg>
