<svg width="612" height="94" viewBox="0 0 612 94" fill="none" xmlns="http://www.w3.org/2000/svg" xmlns:xlink="http://www.w3.org/1999/xlink">
<path d="M0,37.095C0,25.963 3.182,17.006 9.547,10.223C15.945,3.408 24.372,0 34.829,0C43.467,0 50.676,2.174 56.456,6.523C62.237,10.84 65.793,16.795 67.124,24.389C67.254,25.33 67.059,26.109 66.54,26.726C66.02,27.31 65.289,27.602 64.348,27.602L50.27,27.602C48.841,27.602 47.851,26.872 47.299,25.411C46.227,22.75 44.717,20.965 42.769,20.056C40.853,19.115 38.206,18.645 34.829,18.645C30.867,18.58 27.636,20.219 25.135,23.561C22.667,26.872 21.433,31.302 21.433,36.851C21.433,42.336 22.667,46.782 25.135,50.19C27.636,53.565 30.867,55.301 34.829,55.399C37.459,55.431 39.765,54.733 41.746,53.305C43.727,51.877 45.269,49.816 46.373,47.123L36.582,47.123C35.673,47.123 34.942,46.863 34.39,46.344C33.871,45.792 33.611,45.062 33.611,44.153L33.708,35.293C33.708,34.385 33.984,33.655 34.536,33.103C35.088,32.551 35.819,32.275 36.728,32.275L64.835,32.665C65.744,32.665 66.475,32.941 67.027,33.492C67.579,34.044 67.855,34.774 67.855,35.683L67.855,70.392C67.855,71.301 67.579,72.031 67.027,72.583C66.475,73.102 65.744,73.362 64.835,73.362L52.072,73.362C51.228,73.362 50.53,73.102 49.978,72.583C49.426,72.031 49.117,71.333 49.052,70.49L48.955,66.498C45.188,70.879 40.447,73.199 34.731,73.459C27.847,73.784 21.758,72.453 16.464,69.467C11.204,66.481 7.144,62.181 4.287,56.567C1.429,50.952 0,44.462 0,37.095Z" fill="#001E57"/>
<path d="M72.993,55.934C72.993,50.969 74.568,47.123 77.718,44.397C80.901,41.638 85.236,40.259 90.724,40.259C94.978,40.259 98.534,41.054 101.392,42.644C101.035,40.892 100.223,39.464 98.956,38.36C97.69,37.224 95.741,36.429 93.111,35.975C90.286,35.488 86.697,35.894 82.346,37.192C81.339,37.484 80.462,37.419 79.715,36.997C79.001,36.575 78.514,35.861 78.254,34.855L76.549,27.018C76.452,26.563 76.484,26.077 76.646,25.557C76.809,25.006 77.085,24.616 77.474,24.389C79.293,23.286 81.794,22.328 84.976,21.517C88.191,20.705 91.471,20.3 94.816,20.3C96.147,20.3 97.755,20.413 99.638,20.641C101.489,20.9 103.113,21.209 104.509,21.566C105.938,21.89 107.448,22.409 109.039,23.123C110.631,23.837 111.995,24.697 113.131,25.703C114.3,26.709 115.421,28.024 116.492,29.646C117.596,31.237 118.457,33.07 119.074,35.147C119.723,37.224 120.211,39.74 120.535,42.693C120.893,45.646 121.006,48.924 120.876,52.526L120.876,70.392C120.876,71.301 120.6,72.031 120.048,72.583C119.496,73.102 118.765,73.362 117.856,73.362L103.389,73.362C102.187,73.362 101.587,72.761 101.587,71.561L101.587,69.759C98.469,71.707 94.848,72.68 90.724,72.68C85.333,72.68 81.03,71.155 77.815,68.104C74.601,65.021 72.993,60.964 72.993,55.934ZM96.91,50.823C95.287,50.823 93.988,51.277 93.013,52.186C92.039,53.094 91.552,54.344 91.552,55.934C91.552,57.459 92.039,58.693 93.013,59.634C93.988,60.542 95.287,60.997 96.91,60.997C100.028,60.997 101.587,59.309 101.587,55.934C101.587,52.526 100.028,50.823 96.91,50.823Z" fill="#001E57"/>
<path d="M130.009,73.362C129.099,73.362 128.369,73.102 127.817,72.583C127.265,72.031 126.989,71.301 126.989,70.392L126.989,24C126.989,23.091 127.265,22.377 127.817,21.858C128.369,21.306 129.099,21.03 130.009,21.03L144.963,21.03C145.678,21.03 146.23,21.241 146.619,21.663C147.041,22.052 147.253,22.604 147.253,23.318L147.253,25.606C150.305,22.069 154.364,20.3 159.43,20.3C165.86,20.202 170.212,22.929 172.485,28.478C173.719,26.141 175.521,24.21 177.892,22.685C180.295,21.127 183.25,20.332 186.757,20.3C188.998,20.3 190.963,20.624 192.652,21.273C194.34,21.923 195.737,22.929 196.841,24.292C197.945,25.622 198.854,27.131 199.569,28.819C200.284,30.474 200.802,32.502 201.128,34.904C201.484,37.273 201.712,39.61 201.81,41.914C201.94,44.218 201.972,46.896 201.906,49.946L201.906,70.392C201.906,71.301 201.63,72.031 201.078,72.583C200.56,73.102 199.845,73.362 198.935,73.362L184.663,73.362C183.754,73.362 183.023,73.102 182.471,72.583C181.951,72.031 181.691,71.301 181.691,70.392L181.691,49.946C181.691,49.297 181.708,48.372 181.74,47.172C181.773,45.938 181.773,44.981 181.74,44.299C181.74,43.618 181.724,42.79 181.691,41.817C181.659,40.811 181.562,40.032 181.399,39.48C181.269,38.928 181.074,38.377 180.815,37.825C180.587,37.241 180.246,36.819 179.792,36.559C179.37,36.3 178.866,36.17 178.282,36.17C177.437,36.17 176.739,36.429 176.187,36.949C175.635,37.435 175.245,38.068 175.018,38.847C174.791,39.626 174.645,40.259 174.58,40.746C174.515,41.2 174.482,41.606 174.482,41.963L174.58,70.392C174.58,71.301 174.304,72.031 173.752,72.583C173.232,73.102 172.518,73.362 171.608,73.362L157.336,73.362C156.427,73.362 155.696,73.102 155.144,72.583C154.592,72.031 154.316,71.301 154.316,70.392L154.316,49.946C154.316,49.362 154.316,48.632 154.316,47.756C154.348,46.847 154.364,46.101 154.364,45.516C154.397,44.9 154.397,44.186 154.364,43.374C154.364,42.563 154.332,41.882 154.267,41.33C154.235,40.778 154.17,40.194 154.072,39.577C153.975,38.961 153.829,38.458 153.634,38.068C153.439,37.646 153.212,37.273 152.952,36.949C152.692,36.592 152.367,36.332 151.978,36.17C151.588,36.007 151.149,35.943 150.662,35.975C149.656,36.04 148.86,36.446 148.275,37.192C147.723,37.938 147.415,38.669 147.35,39.383L147.253,40.454L147.253,70.392C147.253,71.301 146.977,72.031 146.424,72.583C145.905,73.102 145.19,73.362 144.281,73.362L130.009,73.362Z" fill="#001E57"/>
<path d="M206.704,46.733C206.704,38.977 209.074,32.6 213.816,27.602C218.59,22.604 224.694,20.105 232.132,20.105C239.146,20.105 244.958,22.344 249.57,26.823C254.214,31.302 256.844,37.208 257.462,44.543C257.526,45.257 257.348,45.89 256.926,46.441C256.536,46.993 255.984,47.334 255.27,47.464L225.556,54.425C227.308,56.827 229.5,58.027 232.132,58.027C235.282,58.027 237.912,57.216 240.022,55.593C240.964,54.879 241.89,54.62 242.798,54.814L253.37,56.81C254.474,57.005 255.22,57.492 255.61,58.271C256,59.017 255.918,59.893 255.366,60.899C250.462,69.337 242.718,73.556 232.132,73.556C224.694,73.556 218.59,71.041 213.816,66.011C209.074,60.981 206.704,54.555 206.704,46.733ZM232.132,33.979C230.02,33.979 228.218,34.677 226.724,36.072C225.262,37.468 224.24,39.269 223.656,41.476L239.39,38.263C237.604,35.407 235.184,33.979 232.132,33.979Z" fill="#001E57"/>
<path d="M261.284,46.831C261.284,41.736 262.436,37.16 264.742,33.103C267.08,29.014 270.264,25.849 274.29,23.61C278.316,21.338 282.782,20.202 287.686,20.202C292.914,20.202 296.616,20.511 298.792,21.127C299.116,21.257 299.392,21.533 299.62,21.955C299.848,22.344 299.96,22.734 299.96,23.123L299.96,33.882C299.96,35.796 299.538,37.046 298.694,37.63C297.85,38.214 296.518,38.295 294.7,37.874C291.94,37.16 289.57,37.062 287.588,37.581C285.38,38.166 283.512,39.301 281.986,40.989C280.492,42.677 279.746,44.624 279.746,46.831C279.746,49.784 280.866,52.153 283.106,53.938C285.348,55.723 287.978,56.616 290.998,56.616C292.426,56.616 294.05,56.323 295.87,55.739C296.81,55.382 297.508,55.204 297.964,55.204C299.296,55.204 299.96,56.21 299.96,58.222L299.96,70.295C299.96,71.561 299.424,72.356 298.354,72.68C295.592,73.329 292.038,73.654 287.686,73.654C280.184,73.654 273.9,71.122 268.834,66.06C263.8,60.997 261.284,54.587 261.284,46.831Z" fill="#001E57"/>
<path d="M305.926,3.748C305.926,2.84 306.202,2.126 306.756,1.606C307.308,1.055 308.038,0.779 308.948,0.779L323.22,0.779C324.128,0.779 324.844,1.055 325.362,1.606C325.914,2.126 326.19,2.84 326.19,3.748L326.19,25.217C329.308,21.874 333.692,20.202 339.342,20.202C341.518,20.202 343.386,20.43 344.944,20.884C346.536,21.306 347.9,22.036 349.036,23.075C350.174,24.113 351.082,25.363 351.764,26.823C352.478,28.251 353.048,30.15 353.47,32.519C353.892,34.888 354.168,37.419 354.298,40.113C354.46,42.774 354.54,46.052 354.54,49.946L354.54,70.392C354.54,71.301 354.264,72.031 353.712,72.583C353.16,73.102 352.43,73.362 351.52,73.362L337.248,73.362C336.34,73.362 335.608,73.102 335.056,72.583C334.536,72.031 334.276,71.301 334.276,70.392L334.276,49.946C334.276,49.816 334.276,49.638 334.276,49.411C334.276,47.204 334.244,45.516 334.18,44.348C334.114,43.147 333.936,41.736 333.644,40.113C333.384,38.49 332.896,37.37 332.182,36.754C331.468,36.137 330.526,35.975 329.358,36.267C328.578,36.462 327.928,36.916 327.408,37.63C326.89,38.312 326.564,38.961 326.434,39.577L326.19,40.454L326.19,70.392C326.19,71.301 325.914,72.031 325.362,72.583C324.844,73.102 324.128,73.362 323.22,73.362L308.948,73.362C308.038,73.362 307.308,73.102 306.756,72.583C306.202,72.031 305.926,71.301 305.926,70.392L305.926,3.748Z" fill="#001E57"/>
<path d="M359.24,55.934C359.24,50.969 360.816,47.123 363.966,44.397C367.148,41.638 371.484,40.259 376.972,40.259C381.226,40.259 384.782,41.054 387.64,42.644C387.282,40.892 386.47,39.464 385.204,38.36C383.938,37.224 381.988,36.429 379.358,35.975C376.534,35.488 372.944,35.894 368.594,37.192C367.586,37.484 366.71,37.419 365.962,36.997C365.248,36.575 364.762,35.861 364.502,34.855L362.796,27.018C362.7,26.563 362.732,26.077 362.894,25.557C363.056,25.006 363.332,24.616 363.722,24.389C365.54,23.286 368.042,22.328 371.224,21.517C374.438,20.705 377.718,20.3 381.064,20.3C382.394,20.3 384.002,20.413 385.886,20.641C387.736,20.9 389.36,21.209 390.756,21.566C392.186,21.89 393.696,22.409 395.286,23.123C396.878,23.837 398.242,24.697 399.378,25.703C400.548,26.709 401.668,28.024 402.74,29.646C403.844,31.237 404.704,33.07 405.322,35.147C405.972,37.224 406.458,39.74 406.782,42.693C407.14,45.646 407.254,48.924 407.124,52.526L407.124,70.392C407.124,71.301 406.848,72.031 406.296,72.583C405.744,73.102 405.014,73.362 404.104,73.362L389.636,73.362C388.434,73.362 387.834,72.761 387.834,71.561L387.834,69.759C384.716,71.707 381.096,72.68 376.972,72.68C371.58,72.68 367.278,71.155 364.062,68.104C360.848,65.021 359.24,60.964 359.24,55.934ZM383.158,50.823C381.534,50.823 380.236,51.277 379.26,52.186C378.286,53.094 377.8,54.344 377.8,55.934C377.8,57.459 378.286,58.693 379.26,59.634C380.236,60.542 381.534,60.997 383.158,60.997C386.276,60.997 387.834,59.309 387.834,55.934C387.834,52.526 386.276,50.823 383.158,50.823Z" fill="#001E57"/>
<path d="M433.5,70.392C433.5,71.301 433.224,72.031 432.672,72.583C432.152,73.102 431.438,73.362 430.528,73.362L416.256,73.362C415.346,73.362 414.616,73.102 414.064,72.583C413.512,72.031 413.236,71.301 413.236,70.392L413.236,24C413.236,23.091 413.512,22.377 414.064,21.858C414.616,21.306 415.346,21.03 416.256,21.03L430.918,21.03C431.73,21.03 432.364,21.257 432.818,21.712C433.272,22.166 433.5,22.799 433.5,23.61L433.5,26.19C436.844,22.198 441.228,20.202 446.652,20.202C449.218,20.17 451.442,20.673 453.326,21.712C455.21,22.718 456.702,24.081 457.808,25.801C458.912,27.488 459.772,29.663 460.388,32.324C461.038,34.953 461.46,37.646 461.656,40.405C461.85,43.163 461.916,46.344 461.85,49.946L461.85,70.392C461.85,71.301 461.574,72.031 461.022,72.583C460.47,73.102 459.74,73.362 458.83,73.362L444.558,73.362C443.648,73.362 442.918,73.102 442.366,72.583C441.846,72.031 441.586,71.301 441.586,70.392L441.586,49.946C441.586,49.816 441.586,49.638 441.586,49.411C441.586,47.204 441.554,45.516 441.488,44.348C441.424,43.147 441.246,41.736 440.952,40.113C440.694,38.49 440.206,37.37 439.492,36.754C438.778,36.137 437.836,35.975 436.666,36.267C435.886,36.462 435.238,36.916 434.718,37.63C434.198,38.312 433.874,38.961 433.744,39.577L433.5,40.454L433.5,70.392Z" fill="#001E57"/>
<path d="M466.744,46.539C466.712,42.06 467.622,37.857 469.472,33.93C471.356,30.003 474.036,26.823 477.51,24.389C481.018,21.955 484.946,20.738 489.298,20.738C491.702,20.738 494.348,21.192 497.238,22.101L497.238,21.225C497.238,20.998 497.32,20.787 497.482,20.592C497.676,20.397 497.904,20.3 498.164,20.3L513.508,20.3C514.416,20.3 515.148,20.576 515.7,21.127C516.252,21.679 516.528,22.409 516.528,23.318L516.528,61.678C516.658,65.313 516.544,68.607 516.186,71.561C515.862,74.514 515.374,77.029 514.726,79.106C514.076,81.215 513.216,83.082 512.144,84.704C511.072,86.327 509.952,87.641 508.782,88.647C507.614,89.653 506.234,90.513 504.642,91.227C503.05,91.941 501.54,92.461 500.112,92.785C498.716,93.142 497.092,93.451 495.24,93.71C491.15,94.229 487.008,94.051 482.82,93.175C478.662,92.331 475.432,91.211 473.126,89.816C472.736,89.556 472.444,89.167 472.25,88.647C472.086,88.128 472.07,87.658 472.2,87.236L473.906,79.447C474.132,78.408 474.62,77.678 475.366,77.256C476.146,76.834 477.056,76.802 478.094,77.159C482.608,78.392 486.164,78.749 488.762,78.23C491.978,77.71 494.152,76.672 495.29,75.114C496.426,73.589 497.044,71.479 497.14,68.786C494.056,71.512 490.532,72.875 486.57,72.875C483.94,72.94 481.44,72.372 479.068,71.171C476.698,69.938 474.604,68.218 472.784,66.011C470.966,63.772 469.504,60.964 468.4,57.589C467.33,54.214 466.778,50.53 466.744,46.539ZM486.766,46.539C486.766,48.194 486.782,49.508 486.814,50.482C486.846,51.455 486.944,52.575 487.106,53.841C487.268,55.074 487.496,56.048 487.788,56.762C488.112,57.443 488.568,58.092 489.152,58.709C489.768,59.293 490.516,59.699 491.392,59.926C492.788,60.283 493.942,60.056 494.852,59.244C495.76,58.433 496.378,57.443 496.702,56.275C497.026,55.106 497.206,53.825 497.238,52.429L497.238,40.648C497.238,38.734 496.88,37.16 496.166,35.926C495.484,34.693 494.446,33.979 493.048,33.784C491.068,33.492 489.526,34.482 488.422,36.754C487.318,38.993 486.766,42.255 486.766,46.539Z" fill="#001E57"/>
<path d="M521.324,46.733C521.324,38.977 523.696,32.6 528.436,27.602C533.21,22.604 539.316,20.105 546.752,20.105C553.766,20.105 559.58,22.344 564.19,26.823C568.834,31.302 571.466,37.208 572.082,44.543C572.146,45.257 571.968,45.89 571.546,46.441C571.156,46.993 570.604,47.334 569.89,47.464L540.176,54.425C541.93,56.827 544.122,58.027 546.752,58.027C549.902,58.027 552.532,57.216 554.644,55.593C555.586,54.879 556.51,54.62 557.42,54.814L567.99,56.81C569.094,57.005 569.842,57.492 570.23,58.271C570.62,59.017 570.54,59.893 569.988,60.899C565.084,69.337 557.338,73.556 546.752,73.556C539.316,73.556 533.21,71.041 528.436,66.011C523.696,60.981 521.324,54.555 521.324,46.733ZM546.752,33.979C544.642,33.979 542.838,34.677 541.346,36.072C539.884,37.468 538.86,39.269 538.276,41.476L554.01,38.263C552.224,35.407 549.804,33.979 546.752,33.979Z" fill="#001E57"/>
<path d="M580.094,73.362C579.184,73.362 578.454,73.102 577.902,72.583C577.35,72.031 577.074,71.301 577.074,70.392L577.074,23.221C577.074,22.312 577.35,21.582 577.902,21.03C578.454,20.478 579.184,20.202 580.094,20.202L594.366,20.202C595.276,20.202 595.99,20.478 596.51,21.03C597.062,21.582 597.338,22.312 597.338,23.221L597.338,26.482C598.832,24.6 600.602,23.123 602.648,22.052C604.726,20.981 606.852,20.446 609.028,20.446C609.678,20.446 610.166,20.478 610.49,20.543C610.912,20.576 611.27,20.77 611.562,21.127C611.854,21.452 612,21.841 612,22.296L612,35.488C612,37.468 611.464,38.458 610.392,38.458C609.84,38.458 609.174,38.263 608.396,37.874C606.22,36.867 604.336,36.559 602.744,36.949C601.348,37.241 600.196,38.02 599.286,39.285C598.41,40.551 597.874,41.752 597.678,42.888L597.338,44.543L597.338,70.392C597.338,71.301 597.062,72.031 596.51,72.583C595.99,73.102 595.276,73.362 594.366,73.362L580.094,73.362Z" fill="#001E57"/>
</svg>
