<svg width="196" height="78" viewBox="0 0 196 78" fill="none" xmlns="http://www.w3.org/2000/svg" xmlns:xlink="http://www.w3.org/1999/xlink">
<path d="M165.247,20.506C165.595,21.436 165.711,22.251 165.827,22.832C165.944,23.413 165.944,23.994 166.06,24.459C166.213,23.886 166.448,23.338 166.758,22.832C166.991,22.251 167.455,21.436 168.036,20.506L182.8,-0.765L194.191,-0.765L170.71,30.386L178.964,48.287L167.688,48.287L164.898,39.801C164.667,39.219 164.55,38.523 164.318,37.826C164.318,37.244 164.201,36.546 164.201,35.849C163.852,36.546 163.621,37.244 163.271,37.826C162.923,38.523 162.574,39.22 162.226,39.801L156.646,48.287L145.488,48.287L159.668,30.386L152.811,14.81L163.622,14.81L165.247,20.506Z" clip-rule="evenodd" fill-rule="evenodd" fill="#001E57"/>
<path d="M148.855,14.811L143.159,48.288L133.976,48.288L134.906,42.824C133.279,45.148 131.419,46.893 129.676,47.939C127.815,48.985 125.84,49.566 123.515,49.566C119.794,49.566 117.006,47.939 115.378,44.684C113.633,41.429 113.284,37.011 114.215,31.548C115.144,26.084 117.005,21.785 119.911,18.53C122.817,15.391 126.305,13.763 130.372,13.763C132.466,13.763 134.208,14.228 135.602,15.391C136.881,16.437 137.927,18.065 138.741,20.273L139.671,14.81L148.855,14.811ZM137.231,31.549C137.697,28.877 137.465,26.784 136.534,25.272C135.604,23.761 134.094,23.064 132.116,23.064C130.024,23.064 128.282,23.761 126.886,25.272C125.491,26.784 124.561,28.877 124.097,31.549C123.631,34.107 123.863,36.199 124.794,37.71C125.724,39.106 127.234,39.919 129.21,39.919C131.187,39.919 132.931,39.106 134.442,37.71C135.838,36.199 136.768,34.106 137.231,31.549ZM87.134,48.288L97.014,48.288L99.455,34.455C99.919,31.2 101.082,28.759 102.71,26.899C104.337,25.155 106.314,24.341 108.753,24.341C109.335,24.341 109.801,24.341 110.382,24.458C110.962,24.574 111.543,24.806 112.125,25.039L114.914,14.228C114.45,14.228 114.102,14.112 113.636,14.112L112.475,14.112C110.151,14.112 107.941,14.809 105.966,16.205C104.106,17.715 102.362,19.808 100.967,22.713L102.245,14.809L92.83,14.809L87.134,48.288ZM64.467,48.288L75.626,48.288L82.02,9.231L166.408,9.231L171.872,-0.3L28.318,-0.3L26.341,9.231L70.744,9.231L64.467,48.288ZM20.297,48.288L25.992,14.811L35.176,14.811L34.013,21.552C35.756,18.879 37.616,16.904 39.593,15.625C41.568,14.346 43.777,13.764 46.218,13.764C48.077,13.764 49.59,14.113 50.867,14.811C52.263,15.508 53.192,16.438 53.89,17.834C54.471,18.879 54.703,20.275 54.819,21.902C54.819,23.529 54.587,25.97 54.006,29.109L50.751,48.289L40.755,48.289L43.777,30.388C44.242,27.715 44.242,25.739 43.661,24.576C43.196,23.298 42.034,22.716 40.406,22.716C38.314,22.716 36.687,23.646 35.408,25.39C34.13,27.25 33.2,30.156 32.503,34.224L30.063,48.29L20.297,48.29L20.297,48.288ZM9.022,9.231L11.114,-0.649L21.11,-0.649L19.134,9.231L9.022,9.231ZM2.628,48.288L8.324,14.811L18.32,14.811L12.625,48.288L2.628,48.288ZM0.886,74.442L2.745,74.325C2.745,74.791 2.861,75.022 3.21,75.254C3.442,75.488 3.907,75.603 4.488,75.603C5.069,75.603 5.534,75.488 5.884,75.37C6.233,75.138 6.349,74.906 6.465,74.672C6.465,74.557 6.465,74.441 6.349,74.324C6.234,74.209 6,74.09 5.768,73.975C5.534,73.975 5.069,73.86 4.372,73.742C3.442,73.51 2.745,73.278 2.396,73.044C1.931,72.696 1.814,72.232 1.931,71.766C2.047,71.417 2.279,71.069 2.628,70.836C2.861,70.488 3.325,70.256 3.906,70.139C4.371,69.908 5.068,69.908 5.767,69.908C6.813,69.908 7.626,70.023 8.208,70.372C8.673,70.835 8.789,71.301 8.673,71.883L6.814,71.883C6.814,71.535 6.814,71.301 6.581,71.186C6.349,71.069 5.884,70.953 5.419,70.953C4.838,70.953 4.489,71.068 4.14,71.186C3.932,71.277 3.767,71.442 3.676,71.65C3.676,71.765 3.676,71.883 3.908,71.998C4.141,72.232 4.606,72.347 5.42,72.462C6.35,72.58 6.931,72.813 7.279,72.928C7.744,73.162 7.977,73.277 8.209,73.625C8.325,73.859 8.325,74.207 8.325,74.671C8.209,75.02 7.977,75.369 7.628,75.717C7.163,76.068 6.698,76.299 6.234,76.417C5.651,76.648 4.954,76.765 4.14,76.765C2.979,76.765 2.164,76.532 1.583,76.183C1.117,75.718 0.886,75.139 0.886,74.442ZM10.998,70.024L12.857,70.024L11.927,73.627C11.811,74.091 11.694,74.557 11.694,74.673C11.694,74.907 11.811,75.139 12.159,75.371C12.392,75.488 12.741,75.604 13.321,75.604C13.786,75.604 14.251,75.489 14.483,75.371C14.832,75.139 15.065,75.022 15.182,74.791C15.298,74.557 15.414,74.209 15.53,73.627L16.344,70.024L18.204,70.024L17.391,73.511C17.157,74.209 17.042,74.79 16.809,75.138C16.692,75.487 16.344,75.718 16.111,75.951C15.764,76.184 15.298,76.417 14.833,76.533C14.368,76.649 13.787,76.766 13.09,76.766C12.424,76.776 11.759,76.697 11.113,76.533C10.765,76.299 10.416,76.184 10.184,75.951C9.95,75.717 9.95,75.487 9.835,75.138C9.835,74.79 9.951,74.209 10.068,73.511L10.998,70.024ZM18.553,74.442L20.413,74.325C20.413,74.791 20.529,75.022 20.878,75.254C21.11,75.488 21.575,75.603 22.156,75.603C22.737,75.603 23.202,75.488 23.551,75.37C23.899,75.138 24.016,74.906 24.132,74.672C24.132,74.557 24.132,74.441 24.016,74.324C23.899,74.209 23.783,74.09 23.434,73.975C23.201,73.975 22.736,73.86 22.039,73.742C21.109,73.51 20.412,73.278 20.18,73.044C19.598,72.696 19.481,72.232 19.598,71.766C19.714,71.417 19.946,71.069 20.18,70.836C20.528,70.488 20.992,70.256 21.574,70.139C22.039,69.908 22.62,69.908 23.434,69.908C24.481,69.908 25.294,70.023 25.875,70.372C26.34,70.835 26.456,71.301 26.34,71.883L24.481,71.883C24.481,71.535 24.364,71.301 24.248,71.186C24.016,71.069 23.551,70.953 23.086,70.953C22.505,70.953 22.156,71.068 21.807,71.186C21.599,71.277 21.433,71.442 21.342,71.65C21.342,71.765 21.342,71.883 21.575,71.998C21.808,72.232 22.274,72.347 23.087,72.462C24.017,72.58 24.598,72.813 25.064,72.928C25.412,73.162 25.645,73.277 25.877,73.625C25.993,73.859 26.11,74.207 25.993,74.671C25.877,75.02 25.645,75.369 25.296,75.717C24.831,76.068 24.366,76.299 23.901,76.417C23.319,76.648 22.622,76.765 21.808,76.765C20.646,76.765 19.832,76.532 19.251,76.183C18.786,75.718 18.553,75.139 18.553,74.442ZM27.038,76.649L28.665,70.024L31.571,70.024C32.734,70.024 33.431,70.024 33.779,70.139C34.244,70.139 34.594,70.373 34.942,70.721C35.175,71.07 35.291,71.536 35.175,72C35.079,72.394 34.878,72.756 34.594,73.045C34.245,73.279 34.012,73.511 33.664,73.743C33.316,73.86 32.967,73.976 32.618,73.976C32.153,74.091 31.456,74.091 30.643,74.091L29.481,74.091L28.899,76.649L27.038,76.649ZM30.178,71.07L29.713,73.045L30.758,73.045C31.456,73.045 32.037,72.93 32.27,72.93C32.502,72.815 32.734,72.697 32.852,72.582C33.084,72.348 33.199,72.233 33.199,72C33.316,71.766 33.199,71.651 33.083,71.417C32.967,71.302 32.734,71.186 32.386,71.186C32.27,71.069 31.804,71.069 31.107,71.069L30.178,71.069L30.178,71.07ZM35.524,76.649L37.151,70.024L43.893,70.024L43.66,71.07L38.662,71.07L38.314,72.582L42.963,72.582L42.614,73.627L38.081,73.627L37.616,75.488L42.731,75.488L42.382,76.649L35.524,76.649ZM44.009,76.649L45.637,70.024L47.381,70.024L50.054,74.442L51.216,70.024L52.843,70.024L51.216,76.649L49.357,76.649L46.8,72.348L45.753,76.649L44.009,76.649ZM53.192,74.442L55.052,74.325C55.052,74.791 55.168,75.022 55.517,75.254C55.749,75.488 56.214,75.603 56.795,75.603C57.27,75.603 57.741,75.524 58.189,75.37C58.538,75.138 58.654,74.906 58.771,74.672C58.771,74.557 58.771,74.441 58.654,74.324C58.538,74.209 58.422,74.09 58.073,73.975C57.84,73.975 57.376,73.86 56.678,73.742C55.748,73.51 55.051,73.278 54.818,73.044C54.236,72.696 54.121,72.232 54.236,71.766C54.36,71.417 54.559,71.1 54.818,70.836C55.167,70.488 55.632,70.256 56.213,70.139C56.678,69.908 57.376,69.908 58.073,69.908C59.119,69.908 59.933,70.023 60.515,70.372C60.98,70.835 61.096,71.301 60.98,71.883L59.119,71.883C59.235,71.535 59.003,71.301 58.887,71.186C58.654,71.069 58.305,70.953 57.725,70.953C57.143,70.953 56.795,71.068 56.446,71.186C56.238,71.276 56.072,71.442 55.982,71.65C55.982,71.765 56.098,71.883 56.214,71.998C56.447,72.232 56.912,72.347 57.841,72.462C58.655,72.58 59.236,72.813 59.701,72.928C60.05,73.162 60.282,73.277 60.515,73.625C60.631,73.859 60.747,74.207 60.631,74.671C60.515,75.02 60.282,75.369 59.934,75.717C59.47,76.068 59.004,76.299 58.539,76.417C57.958,76.648 57.261,76.765 56.447,76.765C55.285,76.765 54.471,76.532 53.89,76.183C53.424,75.718 53.192,75.139 53.192,74.442ZM61.562,76.649L63.189,70.024L65.048,70.024L63.421,76.649L61.562,76.649ZM65.629,73.279C65.745,72.697 66.094,72.116 66.443,71.652C66.792,71.303 67.141,70.955 67.489,70.722C67.954,70.489 68.419,70.258 68.884,70.14C69.465,70.025 70.162,69.909 70.86,69.909C72.255,69.909 73.185,70.14 73.882,70.837C74.579,71.42 74.696,72.234 74.464,73.28C74.232,74.326 73.65,75.14 72.72,75.838C71.674,76.42 70.627,76.767 69.233,76.767C67.838,76.767 66.908,76.419 66.211,75.838C65.629,75.254 65.397,74.442 65.629,73.279ZM67.489,73.279C67.373,74.091 67.489,74.557 67.838,75.022C68.187,75.371 68.768,75.604 69.465,75.604C70.278,75.604 70.86,75.371 71.44,75.022C72.023,74.558 72.37,74.092 72.604,73.279C72.72,72.582 72.72,72.001 72.371,71.536C71.906,71.187 71.441,71.07 70.627,71.07C69.812,71.07 69.232,71.187 68.651,71.536C68.07,72 67.722,72.582 67.489,73.279ZM75.161,76.649L76.788,70.024L78.532,70.024L81.206,74.442L82.252,70.024L83.995,70.024L82.367,76.649L80.508,76.649L77.834,72.348L76.788,76.649L75.161,76.649ZM89.807,76.649L91.202,71.07L88.528,71.07L88.761,70.024L95.968,70.024L95.735,71.07L93.062,71.07L91.667,76.649L89.807,76.649ZM95.618,76.649L97.246,70.024L103.988,70.024L103.64,71.07L98.758,71.07L98.407,72.582L102.941,72.582L102.71,73.627L98.177,73.627L97.711,75.488L102.825,75.488L102.477,76.649L95.618,76.649ZM110.498,74.209L112.125,74.557C111.776,75.254 111.079,75.835 110.382,76.184C109.683,76.533 108.87,76.766 107.822,76.766C106.661,76.766 105.73,76.418 105.149,75.836C104.452,75.254 104.337,74.442 104.567,73.394C104.801,72.233 105.382,71.418 106.312,70.836C107.242,70.139 108.404,69.908 109.683,69.908C110.731,69.908 111.658,70.139 112.24,70.605C112.589,70.836 112.706,71.302 112.822,71.766L110.962,72.115C110.962,71.766 110.731,71.535 110.498,71.302C110.149,71.069 109.801,71.069 109.335,71.069C108.638,71.069 108.057,71.186 107.477,71.535C107.011,71.883 106.662,72.463 106.429,73.278C106.314,74.09 106.314,74.672 106.662,75.021C107.011,75.37 107.477,75.603 108.174,75.603C108.638,75.603 109.104,75.488 109.452,75.254C109.916,75.022 110.265,74.673 110.498,74.209ZM113.286,76.649L114.914,70.024L116.774,70.024L116.077,72.582L119.68,72.582L120.377,70.024L122.122,70.024L120.494,76.649L118.75,76.649L119.447,73.743L115.844,73.743L115.146,76.649L113.286,76.649ZM122.471,76.649L124.098,70.024L125.841,70.024L128.514,74.442L129.56,70.024L131.304,70.024L129.677,76.649L127.816,76.649L125.259,72.348L124.098,76.649L122.471,76.649ZM132.001,73.279C132.234,72.697 132.467,72.116 132.931,71.652C133.194,71.257 133.554,70.937 133.976,70.722C134.368,70.46 134.8,70.263 135.255,70.14C135.952,70.025 136.533,69.909 137.349,69.909C138.627,69.909 139.673,70.14 140.255,70.837C140.952,71.42 141.184,72.234 140.952,73.28C140.604,74.326 140.022,75.14 139.092,75.838C138.162,76.42 136.998,76.767 135.604,76.767C134.326,76.767 133.28,76.419 132.583,75.838C132.001,75.254 131.769,74.442 132.001,73.279ZM133.978,73.279C133.744,74.091 133.862,74.557 134.211,75.022C134.675,75.371 135.141,75.604 135.954,75.604C136.651,75.604 137.351,75.371 137.814,75.022C138.397,74.558 138.86,74.092 138.978,73.279C139.209,72.582 139.093,72.001 138.744,71.536C138.396,71.187 137.814,71.07 136.999,71.07C136.302,71.07 135.604,71.187 135.023,71.536C134.559,72 134.095,72.582 133.978,73.279ZM141.532,76.649L143.159,70.024L145.019,70.024L143.625,75.488L148.274,75.488L148.043,76.649L141.532,76.649ZM149.671,73.279C149.902,72.697 150.135,72.116 150.6,71.652C150.863,71.257 151.224,70.937 151.648,70.722C152.111,70.489 152.46,70.258 152.926,70.14C153.614,69.993 154.314,69.916 155.018,69.909C156.296,69.909 157.342,70.14 158.039,70.837C158.621,71.42 158.854,72.234 158.621,73.28C158.272,74.326 157.691,75.14 156.761,75.838C155.832,76.42 154.669,76.767 153.275,76.767C151.997,76.767 150.949,76.419 150.369,75.838C149.671,75.254 149.437,74.442 149.671,73.279ZM151.646,73.279C151.413,74.091 151.529,74.557 151.878,75.022C152.344,75.371 152.808,75.604 153.623,75.604C154.32,75.604 155.018,75.371 155.481,75.022C156.063,74.558 156.529,74.092 156.645,73.279C156.878,72.582 156.76,72.001 156.411,71.536C156.062,71.187 155.481,71.07 154.784,71.07C153.972,71.07 153.274,71.187 152.692,71.536C152.226,72 151.762,72.582 151.646,73.279ZM163.851,74.209L164.199,73.045L168.151,73.045L167.454,75.718C166.99,75.952 166.408,76.184 165.596,76.418C164.881,76.646 164.137,76.763 163.387,76.766C162.457,76.766 161.76,76.533 161.063,76.3C160.48,75.952 160.015,75.603 159.784,75.022C159.551,74.442 159.551,73.861 159.667,73.279C159.9,72.582 160.249,72.001 160.715,71.418C161.295,70.955 161.993,70.489 162.691,70.257C163.271,70.024 164.085,69.909 164.897,69.909C166.061,69.909 166.875,70.024 167.455,70.373C168.037,70.721 168.27,71.187 168.385,71.767L166.409,72.116C166.409,71.767 166.176,71.536 165.945,71.303C165.597,71.07 165.131,71.07 164.667,71.07C163.853,71.07 163.155,71.187 162.573,71.536C162.109,71.884 161.761,72.464 161.644,73.163C161.412,73.975 161.528,74.557 161.877,75.021C162.226,75.37 162.692,75.603 163.504,75.603C163.853,75.603 164.318,75.488 164.667,75.37C165.131,75.254 165.48,75.138 165.828,75.021L166.062,74.209L163.851,74.209ZM171.407,76.649L171.986,73.86L169.662,70.024L171.871,70.024L173.266,72.582L176.056,70.024L178.147,70.024L173.847,73.86L173.15,76.649L171.407,76.649ZM0.07,64.212L179.077,64.212L180.937,55.959L1.931,55.959L0.07,64.212Z" clip-rule="evenodd" fill-rule="evenodd" fill="#001E57"/>
</svg>
