<svg width="32" height="30" viewBox="0 0 32 30" fill="none" xmlns="http://www.w3.org/2000/svg" xmlns:xlink="http://www.w3.org/1999/xlink">
<path d="M15.477,-0.164C11.488,-0.164 10.987,-0.146 9.42,-0.075C7.857,-0.003 6.789,0.244 5.855,0.608C4.889,0.983 4.07,1.485 3.253,2.301C2.436,3.118 1.934,3.937 1.558,4.903C1.194,5.837 0.946,6.905 0.876,8.468C0.805,10.035 0.787,10.536 0.787,14.525C0.787,18.514 0.805,19.013 0.876,20.58C0.948,22.144 1.195,23.211 1.558,24.145C1.934,25.111 2.436,25.931 3.252,26.747C4.068,27.564 4.888,28.067 5.853,28.443C6.788,28.806 7.856,29.053 9.419,29.125C10.986,29.196 11.486,29.214 15.475,29.214C19.465,29.214 19.964,29.196 21.531,29.125C23.094,29.053 24.163,28.806 25.098,28.443C26.063,28.067 26.882,27.564 27.698,26.747C28.515,25.931 29.017,25.111 29.393,24.146C29.754,23.211 30.002,22.144 30.076,20.58C30.146,19.014 30.164,18.514 30.164,14.525C30.164,10.536 30.146,10.035 30.076,8.468C30.002,6.905 29.754,5.837 29.393,4.903C29.017,3.937 28.515,3.118 27.698,2.301C26.881,1.484 26.064,0.982 25.097,0.608C24.16,0.244 23.092,-0.003 21.529,-0.075C19.962,-0.146 19.463,-0.164 15.472,-0.164L15.477,-0.164ZM14.159,2.483C14.55,2.483 14.987,2.483 15.477,2.483C19.399,2.483 19.864,2.498 21.413,2.568C22.845,2.633 23.622,2.873 24.14,3.074C24.825,3.34 25.314,3.658 25.828,4.172C26.342,4.686 26.66,5.176 26.927,5.862C27.128,6.379 27.368,7.156 27.433,8.588C27.503,10.137 27.518,10.602 27.518,14.522C27.518,18.442 27.503,18.907 27.433,20.455C27.367,21.887 27.128,22.665 26.927,23.182C26.661,23.867 26.342,24.355 25.828,24.869C25.314,25.383 24.826,25.702 24.14,25.968C23.623,26.17 22.845,26.409 21.413,26.474C19.864,26.544 19.399,26.56 15.477,26.56C11.555,26.56 11.09,26.544 9.542,26.474C8.109,26.408 7.332,26.169 6.814,25.968C6.129,25.701 5.639,25.383 5.125,24.869C4.611,24.355 4.293,23.866 4.026,23.181C3.825,22.664 3.585,21.886 3.52,20.454C3.449,18.906 3.435,18.441 3.435,14.518C3.435,10.596 3.449,10.133 3.52,8.584C3.585,7.152 3.825,6.375 4.026,5.857C4.292,5.172 4.611,4.682 5.125,4.168C5.639,3.654 6.129,3.336 6.814,3.069C7.332,2.867 8.109,2.628 9.542,2.562C10.897,2.501 11.422,2.483 14.159,2.48L14.159,2.483ZM23.318,4.922C22.345,4.922 21.555,5.711 21.555,6.684C21.555,7.658 22.345,8.447 23.318,8.447C24.291,8.447 25.08,7.658 25.08,6.684C25.08,5.711 24.291,4.922 23.318,4.922L23.318,4.922ZM15.477,6.982C11.311,6.982 7.934,10.359 7.934,14.525C7.934,18.691 11.311,22.067 15.477,22.067C19.643,22.067 23.019,18.691 23.019,14.525C23.019,10.359 19.642,6.982 15.477,6.982L15.477,6.982ZM15.477,9.629C18.181,9.629 20.373,11.821 20.373,14.525C20.373,17.229 18.181,19.421 15.477,19.421C12.773,19.421 10.581,17.229 10.581,14.525C10.581,11.821 12.773,9.629 15.477,9.629L15.477,9.629Z" fill="#FFFFFF"/>
</svg>
