<svg width="32" height="30" viewBox="0 0 32 30" fill="none" xmlns="http://www.w3.org/2000/svg" xmlns:xlink="http://www.w3.org/1999/xlink">
<path d="M0.787,1.941C0.787,0.779 1.753,-0.164 2.944,-0.164L28.007,-0.164C29.198,-0.164 30.164,0.779 30.164,1.941L30.164,27.109C30.164,28.271 29.198,29.213 28.007,29.213L2.944,29.213C1.753,29.213 0.787,28.271 0.787,27.109L0.787,1.941ZM9.863,24.428L9.863,11.163L5.454,11.163L5.454,24.428L9.863,24.428ZM7.659,9.352C9.196,9.352 10.153,8.333 10.153,7.06C10.125,5.758 9.196,4.768 7.688,4.768C6.18,4.768 5.194,5.758 5.194,7.06C5.194,8.333 6.15,9.352 7.63,9.352L7.659,9.352ZM16.672,24.428L16.672,17.02C16.672,16.624 16.7,16.228 16.817,15.944C17.135,15.152 17.861,14.332 19.079,14.332C20.674,14.332 21.313,15.548 21.313,17.331L21.313,24.428L25.722,24.428L25.722,16.822C25.722,12.747 23.546,10.851 20.645,10.851C18.306,10.851 17.258,12.137 16.672,13.041L16.672,13.087L16.642,13.087C16.652,13.071 16.662,13.056 16.672,13.041L16.672,11.163L12.263,11.163C12.32,12.407 12.263,24.428 12.263,24.428L16.672,24.428Z" fill="#001E57"/>
</svg>
