<svg width="198" height="76" viewBox="0 0 198 76" fill="none" xmlns="http://www.w3.org/2000/svg" xmlns:xlink="http://www.w3.org/1999/xlink">
<path d="M21.653,11.495C26.059,11.495 29.643,15.138 29.643,19.617C29.643,24.091 26.058,27.734 21.653,27.734C17.25,27.734 13.665,24.091 13.665,19.617C13.664,15.137 17.251,11.495 21.653,11.495ZM21.653,39.224C32.296,39.224 40.95,30.429 40.95,19.617C40.95,8.798 32.297,0 21.653,0C11.012,0 2.356,8.799 2.356,19.617C2.356,30.429 11.012,39.224 21.653,39.224ZM29.46,55.223C33.43,54.304 37.218,52.709 40.665,50.507C41.934,49.695 42.834,48.405 43.166,46.919C43.499,45.433 43.238,43.874 42.439,42.584C42.045,41.945 41.53,41.391 40.924,40.954C40.318,40.517 39.634,40.206 38.91,40.038C38.186,39.87 37.436,39.849 36.704,39.976C35.972,40.103 35.272,40.375 34.644,40.777C26.738,45.829 16.563,45.826 8.664,40.777C8.035,40.375 7.335,40.103 6.603,39.976C5.871,39.849 5.122,39.87 4.398,40.038C3.674,40.205 2.989,40.517 2.384,40.954C1.778,41.39 1.264,41.944 0.869,42.584C0.07,43.873 -0.192,45.432 0.141,46.918C0.473,48.404 1.372,49.695 2.641,50.507C6.087,52.709 9.875,54.303 13.844,55.223L3.056,66.19C1.996,67.267 1.401,68.729 1.401,70.253C1.401,71.778 1.997,73.239 3.058,74.317C4.118,75.394 5.556,76 7.056,75.999C8.555,75.999 9.993,75.393 11.053,74.315L21.651,63.541L32.256,74.316C32.78,74.85 33.403,75.273 34.088,75.562C34.774,75.851 35.509,76 36.251,76C36.993,76 37.728,75.851 38.413,75.562C39.099,75.273 39.721,74.85 40.246,74.316C40.772,73.783 41.189,73.15 41.473,72.453C41.758,71.756 41.905,71.009 41.905,70.254C41.905,69.499 41.758,68.752 41.473,68.055C41.189,67.357 40.772,66.724 40.246,66.191L29.46,55.223ZM169.259,37.453C170.239,36.923 172.051,35.262 172.666,33.098L174.125,27.342C174.139,27.299 174.142,27.252 174.135,27.207C174.128,27.162 174.11,27.119 174.084,27.081C174.058,27.044 174.024,27.014 173.985,26.993C173.945,26.972 173.902,26.961 173.857,26.96L170.079,26.96C170.018,26.961 169.958,26.981 169.91,27.019C169.861,27.056 169.826,27.109 169.81,27.169C169.81,27.169 168.866,31.671 168.397,32.881C167.928,34.091 166.739,35.187 166.041,35.622C165.702,35.838 165.323,35.98 164.927,36.039C164.525,36.101 164.105,36.131 163.679,36.131L159.997,36.131L159.997,27.253C159.997,27.176 159.968,27.103 159.916,27.048C159.863,26.993 159.791,26.961 159.716,26.959L155.937,26.959C155.862,26.961 155.79,26.992 155.737,27.047C155.684,27.102 155.655,27.176 155.656,27.253L155.656,51.121C155.656,51.283 155.78,51.414 155.937,51.414L159.716,51.414C159.753,51.413 159.79,51.405 159.825,51.39C159.859,51.375 159.89,51.354 159.916,51.326C159.942,51.299 159.963,51.267 159.977,51.232C159.99,51.197 159.997,51.159 159.997,51.121L159.997,39.942L164.183,39.942C164.886,39.942 168.951,40.466 169.312,43.436L170.134,51.202C170.15,51.262 170.185,51.316 170.233,51.355C170.282,51.394 170.342,51.415 170.404,51.417L174.274,51.417C174.318,51.416 174.362,51.404 174.402,51.383C174.441,51.362 174.475,51.332 174.501,51.295C174.527,51.258 174.544,51.216 174.551,51.171C174.558,51.126 174.555,51.081 174.542,51.037C174.542,51.037 173.836,45.781 173.259,42.114C172.681,38.445 169.191,37.423 169.259,37.453ZM147.939,42.211C147.939,45.152 145.542,47.535 142.587,47.535C139.63,47.535 137.232,45.152 137.232,42.211L137.232,36.293C137.232,33.352 139.63,30.968 142.587,30.968C145.542,30.968 147.939,33.352 147.939,36.293L147.939,42.211ZM142.604,26.764C137.264,26.764 132.934,31.078 132.934,36.398L132.934,42.067C132.934,47.388 137.264,51.703 142.604,51.703C147.945,51.703 152.274,47.388 152.274,42.067L152.274,36.398C152.274,31.077 147.946,26.764 142.604,26.764ZM100.052,47.313L89.864,47.313C90.414,46.274 90.782,45 90.961,43.528C91.161,41.883 91.465,39.782 91.588,37.277L92.13,31.011L100.054,31.011L100.052,47.313ZM106.597,47.313L104.482,47.313L104.482,27.252C104.483,27.176 104.453,27.102 104.401,27.047C104.348,26.992 104.276,26.96 104.201,26.958L88.547,26.958C88.474,26.96 88.404,26.99 88.352,27.042C88.299,27.094 88.269,27.164 88.266,27.238L87.523,37.385C87.429,38.923 87.196,40.237 87.105,41.326C87.013,42.401 86.868,43.33 86.676,44.09C86.481,44.848 86.218,45.462 85.87,45.967C85.531,46.451 85.127,46.987 84.514,47.281C83.901,47.574 82.265,47.702 82.265,47.702C82.199,47.715 82.14,47.751 82.098,47.804C82.055,47.856 82.033,47.923 82.034,47.991L82.034,57.616C82.034,57.778 82.16,57.909 82.316,57.909L86.096,57.909C86.251,57.909 86.377,57.777 86.377,57.616L86.377,51.415L102.538,51.415L102.538,57.616C102.538,57.778 102.663,57.909 102.819,57.909L106.595,57.909C106.671,57.908 106.743,57.876 106.796,57.822C106.849,57.767 106.878,57.693 106.878,57.616L106.878,47.606C106.878,47.529 106.849,47.455 106.796,47.4C106.743,47.345 106.673,47.314 106.597,47.313ZM128.751,26.958L124.971,26.958C124.895,26.96 124.823,26.992 124.771,27.047C124.718,27.102 124.689,27.176 124.69,27.252L124.69,36.033L114.656,36.033L114.656,27.252C114.657,27.176 114.628,27.102 114.575,27.047C114.522,26.992 114.451,26.96 114.375,26.958L110.596,26.958C110.52,26.96 110.448,26.992 110.396,27.047C110.343,27.102 110.314,27.176 110.315,27.252L110.315,51.119C110.315,51.282 110.439,51.414 110.596,51.414L114.375,51.414C114.451,51.412 114.523,51.38 114.575,51.325C114.628,51.27 114.657,51.196 114.656,51.119L114.656,39.798L124.69,39.798L124.69,51.121C124.69,51.284 124.815,51.415 124.971,51.415L128.751,51.415C128.906,51.415 129.032,51.283 129.032,51.121L129.032,27.252C129.033,27.176 129.004,27.102 128.951,27.047C128.898,26.992 128.827,26.96 128.751,26.958ZM76.355,42.21C76.355,45.151 73.958,47.534 71.002,47.534C68.045,47.534 65.647,45.151 65.647,42.21L65.647,36.292C65.647,33.351 68.045,30.967 71.002,30.967C73.958,30.967 76.355,33.351 76.355,36.292L76.355,42.21ZM71.02,26.763C65.68,26.763 61.35,31.077 61.35,36.397L61.35,42.065C61.35,47.388 65.68,51.701 71.02,51.701C76.361,51.701 80.69,47.388 80.69,42.065L80.69,36.397C80.69,31.076 76.361,26.763 71.02,26.763ZM197.715,26.957L182.397,26.957C182.322,26.959 182.25,26.99 182.197,27.045C182.144,27.1 182.115,27.174 182.116,27.251C182.116,27.251 182.19,38.305 181.327,42.999C180.983,44.878 180.808,45.142 180.429,45.795C180.061,46.434 179.581,46.906 179.002,47.197C178.361,47.525 177.635,47.844 176.843,48.15C176.775,48.178 176.72,48.231 176.688,48.298C176.656,48.366 176.65,48.443 176.672,48.515L177.682,51.836C177.72,51.96 177.83,52.04 177.95,52.04L178.002,52.035C179.225,51.808 180.328,51.43 181.282,50.925C182.256,50.408 183.091,49.625 183.762,48.59C184.421,47.577 184.937,46.223 185.299,44.57C185.659,42.927 185.907,40.717 186.051,38.37L186.368,31.011L193.569,31.011L193.569,51.12C193.569,51.282 193.694,51.413 193.851,51.413L197.719,51.413C197.757,51.412 197.793,51.404 197.828,51.389C197.862,51.374 197.893,51.353 197.919,51.326C197.945,51.298 197.966,51.266 197.98,51.231C197.994,51.196 198,51.158 198,51.12L198,27.251C198.001,27.175 197.972,27.101 197.919,27.046C197.866,26.991 197.791,26.959 197.715,26.957Z" fill="#001E57"/>
</svg>
