<svg width="200" height="116" viewBox="0 0 200 116" fill="none" xmlns="http://www.w3.org/2000/svg" xmlns:xlink="http://www.w3.org/1999/xlink">
<path d="M2.265,52.943C1.848,52.943 1.516,53.266 1.463,53.726L0,64.835L1.463,75.753C1.516,76.213 1.848,76.534 2.265,76.534C2.669,76.534 2.998,76.216 3.063,75.757L4.796,64.835L3.063,53.724C3,53.266 2.667,52.943 2.265,52.943ZM10.49,46.873C10.421,46.396 10.079,46.067 9.658,46.067C9.234,46.067 8.883,46.407 8.825,46.873C8.825,46.878 6.859,64.835 6.859,64.835L8.825,82.399C8.881,82.87 9.232,83.21 9.658,83.21C10.077,83.21 10.419,82.879 10.488,82.404L12.724,64.835L10.49,46.873ZM41.471,30.305C40.665,30.305 39.998,30.965 39.959,31.804L38.393,64.85L39.959,86.206C40,87.041 40.665,87.699 41.471,87.699C42.274,87.699 42.938,87.039 42.986,86.202L42.986,86.209L44.756,64.85L42.986,31.804C42.938,30.965 42.273,30.305 41.471,30.305ZM25.436,41.791C24.817,41.791 24.312,42.285 24.262,42.946L22.498,64.842L24.262,86.026C24.309,86.682 24.817,87.176 25.436,87.176C26.049,87.176 26.555,86.682 26.609,86.026L28.613,64.842L26.609,42.941C26.555,42.285 26.049,41.791 25.436,41.791ZM57.766,87.697C58.767,87.697 59.58,86.89 59.62,85.858L61.156,64.861L59.623,20.865C59.582,19.832 58.769,19.026 57.769,19.026C56.76,19.026 55.945,19.834 55.912,20.867L54.551,64.859L55.912,85.864C55.945,86.888 56.76,87.697 57.766,87.697ZM91.127,87.796C92.503,87.796 93.639,86.663 93.665,85.269L94.736,64.874L93.664,14.061C93.641,12.67 92.503,11.534 91.126,11.534C89.748,11.534 88.61,12.668 88.588,14.064L87.631,64.857C87.631,64.889 88.588,85.281 88.588,85.281C88.61,86.662 89.75,87.796 91.127,87.796ZM74.32,87.716C75.518,87.716 76.483,86.755 76.516,85.529L76.516,85.544L77.819,64.865L76.513,20.551C76.481,19.325 75.515,18.366 74.317,18.366C73.111,18.366 72.145,19.325 72.119,20.551L70.96,64.868L72.121,85.542C72.147,86.755 73.113,87.716 74.32,87.716ZM33.423,87.523C34.135,87.523 34.711,86.953 34.765,86.202L36.653,64.842L34.765,44.522C34.713,43.772 34.137,43.206 33.423,43.206C32.7,43.206 32.124,43.776 32.078,44.531L30.416,64.842L32.078,86.2C32.126,86.953 32.7,87.523 33.423,87.523ZM17.515,86.353C18.035,86.353 18.457,85.942 18.517,85.374L20.638,64.837L18.519,43.526C18.457,42.957 18.035,42.545 17.515,42.545C16.988,42.545 16.566,42.959 16.512,43.526L14.645,64.837L16.512,85.37C16.564,85.94 16.986,86.353 17.515,86.353ZM82.691,19.813C81.39,19.813 80.346,20.848 80.321,22.173L79.262,64.87L80.321,85.415C80.346,86.723 81.387,87.757 82.691,87.757C83.99,87.757 85.027,86.725 85.057,85.4L85.057,85.417L86.244,64.872L85.057,22.168C85.027,20.848 83.99,19.813 82.691,19.813ZM49.589,87.74C50.488,87.74 51.23,87.006 51.273,86.071L52.925,64.857L51.273,24.252C51.228,23.314 50.488,22.583 49.589,22.583C48.681,22.583 47.941,23.317 47.902,24.252L46.44,64.857L47.905,86.079C47.941,87.006 48.681,87.74 49.589,87.74ZM68.035,85.738L68.035,85.727L69.454,64.863L68.035,19.385C68,18.256 67.11,17.37 66.011,17.37C64.905,17.37 64.014,18.254 63.985,19.385L62.724,64.861L63.987,85.735C64.017,86.854 64.907,87.738 66.011,87.738C67.112,87.738 67.998,86.854 68.035,85.729L68.035,85.738L68.035,85.738ZM175.402,38.648C172.032,38.648 168.816,39.33 165.887,40.558C163.929,18.387 145.337,0.995 122.658,0.995C117.109,0.995 111.7,2.088 106.923,3.935C105.066,4.653 104.572,5.393 104.555,6.828L104.555,84.905C104.574,86.411 105.742,87.664 107.211,87.813C107.273,87.819 174.962,87.854 175.4,87.854C188.985,87.854 200,76.839 200,63.252C200,49.665 188.987,38.648 175.402,38.648ZM99.526,6.759C98.048,6.759 96.835,7.972 96.813,9.463L95.704,64.88L96.816,84.993C96.835,86.462 98.048,87.673 99.526,87.673C100.999,87.673 102.212,86.462 102.233,84.972L102.233,84.995L103.44,64.88L102.233,9.459C102.212,7.972 100.999,6.759 99.526,6.759ZM19.866,103.493C16.956,102.809 16.168,102.443 16.168,101.29C16.168,100.478 16.824,99.637 18.79,99.637C20.47,99.637 21.782,100.318 22.961,101.525L25.609,98.957C23.877,97.148 21.78,96.072 18.924,96.072C15.302,96.072 12.366,98.118 12.366,101.45C12.366,105.067 14.728,106.143 18.109,106.928C21.569,107.713 22.2,108.24 22.2,109.421C22.2,110.81 21.174,111.415 19.001,111.415C17.244,111.415 15.592,110.812 14.306,109.313L11.658,111.675C13.047,113.721 15.725,115.005 18.79,115.005C23.802,115.005 26.004,112.645 26.004,109.159C26.004,105.171 22.778,104.175 19.866,103.493ZM36.759,96.072C31.751,96.072 28.789,99.953 28.789,105.539C28.789,111.125 31.751,115.003 36.759,115.003C41.766,115.003 44.732,111.125 44.732,105.539C44.732,99.953 41.766,96.072 36.759,96.072ZM36.759,111.361C33.797,111.361 32.562,108.817 32.562,105.541C32.562,102.263 33.797,99.718 36.759,99.718C39.725,99.718 40.955,102.263 40.955,105.541C40.955,108.817 39.725,111.361 36.759,111.361ZM59.549,106.668C59.549,109.604 58.104,111.415 55.773,111.415C53.439,111.415 52.023,109.552 52.023,106.616L52.023,96.359L48.35,96.359L48.35,106.668C48.35,112.015 51.342,115.005 55.772,115.005C60.44,115.005 63.221,111.935 63.221,106.616L63.221,96.359L59.549,96.359L59.549,106.668ZM79.058,104.123C79.058,105.147 79.109,107.453 79.109,108.135C78.873,107.662 78.271,106.745 77.825,106.061L71.319,96.357L67.807,96.357L67.807,114.717L71.427,114.717L71.427,106.638C71.427,105.614 71.375,103.308 71.375,102.626C71.609,103.097 72.216,104.016 72.659,104.7L79.4,114.717L82.678,114.717L82.678,96.356L79.058,96.356L79.058,104.123ZM93.14,96.359L87.397,96.359L87.397,114.719L92.875,114.719C97.596,114.719 102.266,111.989 102.266,105.539C102.266,98.824 98.384,96.359 93.14,96.359ZM92.875,111.152L91.069,111.152L91.069,99.927L93.009,99.927C96.891,99.927 98.491,101.787 98.491,105.539C98.491,108.896 96.732,111.152 92.875,111.152ZM113.621,99.716C115.272,99.716 116.322,100.452 116.978,101.71L120.387,100.138C119.232,97.752 117.133,96.072 113.672,96.072C108.877,96.072 105.518,99.953 105.518,105.539C105.518,111.333 108.742,115.003 113.54,115.003C116.872,115.003 119.075,113.456 120.333,110.86L117.24,109.023C116.27,110.651 115.298,111.359 113.646,111.359C110.893,111.359 109.293,108.84 109.293,105.539C109.291,102.132 110.869,99.716 113.621,99.716ZM127.238,96.359L123.566,96.359L123.566,114.719L134.6,114.719L134.6,111.097L127.238,111.097L127.238,96.359ZM144.273,96.072C139.261,96.072 136.299,99.953 136.299,105.539C136.299,111.125 139.261,115.003 144.273,115.003C149.28,115.003 152.244,111.125 152.244,105.539C152.244,99.953 149.28,96.072 144.273,96.072ZM144.273,111.361C141.307,111.361 140.076,108.817 140.076,105.541C140.076,102.263 141.307,99.718 144.273,99.718C147.232,99.718 148.465,102.263 148.465,105.541C148.465,108.817 147.232,111.361 144.273,111.361ZM167.059,106.668C167.059,109.604 165.62,111.415 163.287,111.415C160.949,111.415 159.535,109.552 159.535,106.616L159.535,96.359L155.864,96.359L155.864,106.668C155.864,112.015 158.854,115.005 163.287,115.005C167.954,115.005 170.733,111.935 170.733,106.616L170.733,96.359L167.059,96.359L167.059,106.668ZM181.064,96.359L175.323,96.359L175.323,114.719L180.801,114.719C185.524,114.719 190.19,111.989 190.19,105.539C190.19,98.824 186.31,96.359 181.064,96.359ZM180.801,111.152L178.992,111.152L178.992,99.927L180.935,99.927C184.812,99.927 186.413,101.787 186.413,105.539C186.413,108.896 184.655,111.152 180.801,111.152Z" fill="#001E57"/>
</svg>
