<svg width="122" height="50" viewBox="0 0 122 50" fill="none" xmlns="http://www.w3.org/2000/svg" xmlns:xlink="http://www.w3.org/1999/xlink">
<path d="M1.282,21.98L1.282,-0.187L9.364,-0.187C11.078,-0.187 12.181,0.18 13.161,0.548C15.366,1.65 16.344,3.732 16.344,5.568C16.344,7.651 15.487,9.12 13.772,10.222C16.344,10.834 17.814,12.549 17.814,15.243C17.814,18.305 15.977,20.509 12.915,21.489C11.813,21.856 10.589,21.979 8.751,21.979L1.282,21.98ZM11.201,3.609C10.589,3.365 9.977,3.242 9.118,3.242L4.955,3.242L4.955,8.998L8.874,8.998C9.976,8.998 10.711,8.875 11.323,8.508C11.737,8.277 12.08,7.939 12.317,7.53C12.554,7.12 12.676,6.654 12.67,6.181C12.67,5.08 12.058,4.099 11.201,3.609ZM12.304,12.794C11.814,12.549 11.078,12.427 9.854,12.427L4.956,12.427L4.956,18.55L9.487,18.55C10.956,18.55 11.692,18.305 12.304,18.06C13.406,17.57 13.896,16.59 13.896,15.365C13.896,14.141 13.406,13.285 12.304,12.794ZM39.858,21.98L39.858,-0.187L43.655,-0.187L43.655,21.98L39.858,21.98ZM67.413,21.98L67.413,-0.187L71.21,-0.187L71.21,21.98L67.413,21.98ZM83.335,-0.309C85.782,-0.309 88.233,0.303 89.581,0.916L89.457,4.59C87.497,3.611 85.662,2.997 83.336,2.997C81.252,2.997 79.417,3.609 79.417,5.325C79.417,9.856 90.806,8.018 90.806,15.489C90.806,19.653 87.377,22.225 82.234,22.225C78.805,22.225 76.476,21.245 74.762,20.265L76.355,17.203C77.703,18.06 79.907,18.917 82.355,18.917C84.681,18.917 86.765,18.06 86.765,16.101C86.765,11.324 75.498,13.406 75.498,5.936C75.497,1.895 78.68,-0.309 83.335,-0.309ZM108.685,21.98L108.685,12.428L98.029,12.428L98.029,21.98L94.233,21.98L94.233,-0.187L98.029,-0.187L98.029,8.876L108.685,8.876L108.685,-0.187L112.48,-0.187L112.48,21.98L108.685,21.98ZM9.609,25.776C11.936,25.776 13.773,26.266 15.732,27.123L14.63,30.308C13.528,29.817 12.058,29.206 9.977,29.206C5.813,29.206 3.241,32.757 3.241,37.044C3.241,41.453 5.69,45.004 9.977,45.004C12.058,45.004 13.528,44.392 14.63,43.902L15.732,47.085C13.772,47.942 11.936,48.433 9.609,48.433C2.996,48.433 -0.801,43.78 -0.801,37.166C-0.801,30.92 2.996,25.776 9.609,25.776ZM92.398,25.776C94.846,25.776 96.684,26.266 98.52,27.123L97.418,30.308C96.316,29.817 94.846,29.206 92.765,29.206C88.6,29.206 86.029,32.757 86.029,37.044C86.029,41.453 88.479,45.004 92.765,45.004C94.847,45.004 96.316,44.392 97.418,43.902L98.52,47.085C96.683,47.942 94.846,48.433 92.398,48.433C85.783,48.433 81.988,43.78 81.988,37.166C81.987,30.92 85.783,25.776 92.398,25.776ZM37.286,37.042C37.286,43.656 33.123,48.433 26.877,48.433C20.63,48.433 16.467,43.78 16.467,37.166C16.467,30.552 20.631,25.776 26.877,25.776C33.245,25.776 37.286,30.43 37.286,37.042ZM33.367,37.042C33.367,32.267 30.552,29.205 26.877,29.205C23.203,29.205 20.387,32.267 20.387,37.165C20.387,41.942 23.204,45.003 26.877,45.003C30.552,45.003 33.367,41.942 33.367,37.042ZM39.858,39.737L39.858,26.021L43.655,26.021L43.655,39.86C43.655,43.656 45.615,45.003 48.799,45.003C51.982,45.003 53.942,43.656 53.942,39.86L53.942,26.021L57.737,26.021L57.737,39.737C57.737,45.738 54.308,48.433 48.799,48.433C43.287,48.433 39.858,45.738 39.858,39.737ZM64.841,32.022L64.719,32.022C64.841,32.756 64.841,33.982 64.841,34.961L64.841,48.065L61.045,48.065L61.045,26.021L65.21,26.021L75.373,41.085L75.497,41.085C75.373,40.35 75.373,39.125 75.373,38.145L75.373,26.021L79.171,26.021L79.171,48.065L75.863,48.065L64.841,32.022ZM101.46,48.065L101.46,26.021L105.256,26.021L105.256,48.065L101.46,48.065ZM108.685,48.065L108.685,26.021L112.48,26.021L112.48,44.637L121.176,44.637L121.176,48.065L108.685,48.065ZM64.474,-0.064L46.594,-0.064L46.594,3.365L53.697,3.365L53.697,21.98L57.495,21.98L57.495,3.365L64.474,3.365L64.474,-0.064ZM33.124,21.98C29.939,15.244 29.082,13.407 27.735,13.407L24.183,13.407L24.183,21.98L20.387,21.98L20.387,-0.064L27.857,-0.064C33.613,-0.064 35.696,2.876 35.696,6.182C35.696,9.244 34.103,11.203 31.654,11.937C32.634,12.549 33.737,14.632 37.411,21.98L33.124,21.98ZM28.101,3.242L24.182,3.242L24.182,9.978L27.979,9.978C30.673,9.978 31.896,8.631 31.896,6.549C31.898,4.712 30.796,3.242 28.101,3.242Z" clip-rule="evenodd" fill-rule="evenodd" fill="#001E57"/>
</svg>
