<svg width="54" height="54" viewBox="0 0 54 54" fill="none" xmlns="http://www.w3.org/2000/svg" xmlns:xlink="http://www.w3.org/1999/xlink">
<path d="M26.174,12.468C26.174,19.449 20.419,25.082 13.438,25.082C6.58,25.082 0.824,19.448 0.824,12.468C0.824,5.488 6.58,-0.146 13.438,-0.146C20.419,-0.146 26.174,5.487 26.174,12.468ZM53.117,12.468C53.12,14.125 52.795,15.766 52.162,17.298C51.529,18.829 50.6,20.221 49.428,21.392C48.256,22.564 46.865,23.493 45.333,24.126C43.802,24.759 42.161,25.084 40.503,25.082C33.523,25.082 27.89,19.448 27.89,12.468C27.89,5.488 33.524,-0.146 40.503,-0.146C42.161,-0.148 43.802,0.176 45.333,0.809C46.865,1.443 48.256,2.372 49.428,3.543C50.6,4.715 51.529,6.107 52.162,7.638C52.795,9.169 53.12,10.811 53.117,12.468ZM26.174,39.533C26.174,46.514 20.419,52.147 13.438,52.147C6.58,52.147 0.824,46.513 0.824,39.533C0.824,32.551 6.58,26.919 13.438,26.919C20.419,26.919 26.174,32.551 26.174,39.533ZM53.117,39.533C53.12,41.19 52.795,42.832 52.162,44.363C51.529,45.894 50.6,47.286 49.428,48.458C48.256,49.629 46.865,50.559 45.333,51.192C43.802,51.825 42.161,52.149 40.503,52.147C38.846,52.149 37.205,51.825 35.674,51.192C34.142,50.559 32.751,49.629 31.579,48.458C30.407,47.286 29.478,45.894 28.845,44.363C28.212,42.832 27.887,41.19 27.89,39.533C27.887,37.876 28.212,36.235 28.845,34.703C29.478,33.172 30.407,31.78 31.579,30.609C32.751,29.437 34.142,28.508 35.674,27.875C37.205,27.242 38.846,26.917 40.503,26.919C42.161,26.917 43.802,27.241 45.333,27.874C46.865,28.508 48.256,29.437 49.428,30.608C50.6,31.78 51.529,33.172 52.162,34.703C52.795,36.235 53.12,37.876 53.117,39.533Z" clip-rule="evenodd" fill-rule="evenodd" fill="#001E57"/>
</svg>
