<svg width="28" height="30" viewBox="0 0 28 30" fill="none" xmlns="http://www.w3.org/2000/svg" xmlns:xlink="http://www.w3.org/1999/xlink">
<path d="M27.998,28.877C27.755,28.512 27.512,28.147 27.27,27.779C24.864,24.126 22.458,20.476 20.053,16.823C18.954,15.155 17.855,13.49 16.758,11.822C16.735,11.785 16.711,11.749 16.683,11.705C16.751,11.622 16.819,11.539 16.886,11.457C19.357,8.459 21.831,5.464 24.302,2.466C25.209,1.365 26.117,0.265 27.025,-0.836C27.05,-0.865 27.069,-0.902 27.09,-0.933L24.617,-0.933C24.598,-0.904 24.584,-0.87 24.563,-0.846C22.493,1.66 20.428,4.166 18.361,6.672C17.47,7.753 16.576,8.836 15.682,9.918C15.652,9.954 15.622,9.988 15.584,10.034C15.556,9.998 15.533,9.971 15.514,9.942C13.904,7.492 12.292,5.042 10.677,2.595C9.903,1.419 9.128,0.243 8.353,-0.933L0.105,-0.933C0.075,-0.933 0.042,-0.933 0.012,-0.933C0.007,-0.931 0.005,-0.916 0,-0.909C0.056,-0.911 0.065,-0.858 0.089,-0.824C0.38,-0.383 0.67,0.058 0.961,0.498C3.829,4.852 6.697,9.206 9.564,13.558C10.003,14.223 10.439,14.888 10.878,15.552C10.899,15.586 10.92,15.621 10.946,15.66C10.892,15.725 10.841,15.789 10.787,15.852C7.483,19.862 4.177,23.871 0.87,27.879C0.609,28.195 0.348,28.512 0.086,28.829C0.063,28.858 0.03,28.877 0,28.902C0.009,28.953 0.047,28.924 0.07,28.924C0.88,28.926 1.687,28.926 2.497,28.926C2.518,28.892 2.534,28.855 2.56,28.826C5.516,25.242 8.472,21.657 11.426,18.073C11.604,17.858 11.781,17.642 11.958,17.427C11.984,17.398 12.01,17.369 12.042,17.332C12.07,17.371 12.094,17.401 12.115,17.432C13.732,19.887 15.349,22.339 16.963,24.791C17.843,26.128 18.725,27.465 19.605,28.802C19.63,28.841 19.649,28.885 19.67,28.928L27.895,28.928C27.923,28.928 27.949,28.926 27.977,28.928C28.021,28.928 27.988,28.892 27.998,28.877ZM24.486,27.061C23.312,27.061 22.139,27.061 20.963,27.063C20.872,27.063 20.816,27.034 20.764,26.956C15.008,18.36 9.249,9.769 3.491,1.175C3.458,1.127 3.425,1.078 3.381,1.01L3.542,1.01C4.704,1.01 5.866,1.012 7.03,1.007C7.135,1.007 7.196,1.039 7.257,1.129C10.647,6.192 14.037,11.252 17.43,16.312C19.794,19.841 22.16,23.369 24.523,26.898C24.554,26.944 24.584,26.99 24.628,27.061L24.486,27.061Z" fill="#001E57"/>
</svg>
